HIERARCHY
ROOT hip
{
  OFFSET 0 0 0
  CHANNELS 6 Xposition Yposition Zposition Zrotation Yrotation Xrotation
  JOINT abdomen
  {
    OFFSET 0 20.6881 -0.73152
    CHANNELS 3 Zrotation Xrotation Yrotation
    JOINT chest
    {
      OFFSET 0 11.7043 -0.48768
      CHANNELS 3 Zrotation Xrotation Yrotation
      JOINT neck
      {
        OFFSET 0 22.1894 -2.19456
        CHANNELS 3 Zrotation Xrotation Yrotation
        JOINT head
        {
          OFFSET -0.24384 7.07133 1.2192
          CHANNELS 3 Zrotation Xrotation Yrotation
          JOINT leftEye
          {
            OFFSET 4.14528 8.04674 8.04672
            CHANNELS 3 Zrotation Xrotation Yrotation
            End Site
            {
              OFFSET 1 0 0
            }
          }
          JOINT rightEye
          {
            OFFSET -3.6576 8.04674 8.04672
            CHANNELS 3 Zrotation Xrotation Yrotation
            End Site
            {
              OFFSET 1 0 0
            }
          }
        }
      }
      JOINT rCollar
      {
        OFFSET -2.68224 19.2634 -4.8768
        CHANNELS 3 Zrotation Xrotation Yrotation
        JOINT rShldr
        {
          OFFSET -8.77824 -1.95073 1.46304
          CHANNELS 3 Zrotation Xrotation Yrotation
          JOINT rForeArm
          {
            OFFSET -28.1742 -1.7115 0.48768
            CHANNELS 3 Zrotation Xrotation Yrotation
            JOINT rHand
            {
              OFFSET -22.5879 0.773209 7.07136
              CHANNELS 3 Zrotation Xrotation Yrotation
              JOINT rThumb1
              {
                OFFSET -1.2192 -0.487915 3.41376
                CHANNELS 3 Zrotation Xrotation Yrotation
                JOINT rThumb2
                {
                  OFFSET -3.37035 -0.52449 3.41376
                  CHANNELS 3 Zrotation Xrotation Yrotation
                  End Site
                  {
                    OFFSET -1.78271 -1.18214 1.43049
                  }
                }
              }
              JOINT rIndex1
              {
                OFFSET -7.75947 0.938293 5.60832
                CHANNELS 3 Zrotation Xrotation Yrotation
                JOINT rIndex2
                {
                  OFFSET -2.54057 -0.884171 1.56538
                  CHANNELS 3 Zrotation Xrotation Yrotation
                  End Site
                  {
                    OFFSET -1.62519 -0.234802 1.16502
                  }
                }
              }
              JOINT rMid1
              {
                OFFSET -8.24714 1.18213 3.41376
                CHANNELS 3 Zrotation Xrotation Yrotation
                JOINT rMid2
                {
                  OFFSET -3.10165 -0.590103 1.0647
                  CHANNELS 3 Zrotation Xrotation Yrotation
                  End Site
                  {
                    OFFSET -2.48547 -0.328903 0.83742
                  }
                }
              }
              JOINT rRing1
              {
                OFFSET -8.82822 0.546677 1.51678
                CHANNELS 3 Zrotation Xrotation Yrotation
                JOINT rRing2
                {
                  OFFSET -2.60934 -0.819778 -0.0198488
                  CHANNELS 3 Zrotation Xrotation Yrotation
                  End Site
                  {
                    OFFSET -2.33842 -0.294052 0.168128
                  }
                }
              }
              JOINT rPinky1
              {
                OFFSET -8.27202 -0.0477905 -0.4584
                CHANNELS 3 Zrotation Xrotation Yrotation
                JOINT rPinky2
                {
                  OFFSET -1.82734 -0.647385 -0.700984
                  CHANNELS 3 Zrotation Xrotation Yrotation
                  End Site
                  {
                    OFFSET -1.69225 -0.51767 -0.607171
                  }
                }
              }
            }
          }
        }
      }
      JOINT lCollar
      {
        OFFSET 2.68224 19.2634 -4.8768
        CHANNELS 3 Zrotation Xrotation Yrotation
        JOINT lShldr
        {
          OFFSET 8.77824 -1.95073 1.46304
          CHANNELS 3 Zrotation Xrotation Yrotation
          JOINT lForeArm
          {
            OFFSET 28.1742 -1.7115 0.48768
            CHANNELS 3 Zrotation Xrotation Yrotation
            JOINT lHand
            {
              OFFSET 22.5879 0.773209 7.07136
              CHANNELS 3 Zrotation Xrotation Yrotation
              JOINT lThumb1
              {
                OFFSET 1.2192 -0.487915 3.41376
                CHANNELS 3 Zrotation Xrotation Yrotation
                JOINT lThumb2
                {
                  OFFSET 3.37035 -0.52449 3.41376
                  CHANNELS 3 Zrotation Xrotation Yrotation
                  End Site
                  {
                    OFFSET 1.78271 -1.18214 1.43049
                  }
                }
              }
              JOINT lIndex1
              {
                OFFSET 7.75947 0.938293 5.60832
                CHANNELS 3 Zrotation Xrotation Yrotation
                JOINT lIndex2
                {
                  OFFSET 2.54057 -0.884171 1.56538
                  CHANNELS 3 Zrotation Xrotation Yrotation
                  End Site
                  {
                    OFFSET 1.62519 -0.234802 1.16502
                  }
                }
              }
              JOINT lMid1
              {
                OFFSET 8.24714 1.18213 3.41376
                CHANNELS 3 Zrotation Xrotation Yrotation
                JOINT lMid2
                {
                  OFFSET 3.10165 -0.590103 1.0647
                  CHANNELS 3 Zrotation Xrotation Yrotation
                  End Site
                  {
                    OFFSET 2.48547 -0.328903 0.83742
                  }
                }
              }
              JOINT lRing1
              {
                OFFSET 8.82822 0.546677 1.51678
                CHANNELS 3 Zrotation Xrotation Yrotation
                JOINT lRing2
                {
                  OFFSET 2.60934 -0.819778 -0.0198488
                  CHANNELS 3 Zrotation Xrotation Yrotation
                  End Site
                  {
                    OFFSET 2.33842 -0.294052 0.168128
                  }
                }
              }
              JOINT lPinky1
              {
                OFFSET 8.27202 -0.0477905 -0.4584
                CHANNELS 3 Zrotation Xrotation Yrotation
                JOINT lPinky2
                {
                  OFFSET 1.82734 -0.647385 -0.700984
                  CHANNELS 3 Zrotation Xrotation Yrotation
                  End Site
                  {
                    OFFSET 1.69225 -0.51767 -0.607171
                  }
                }
              }
            }
          }
        }
      }
    }
  }
  JOINT rButtock
  {
    OFFSET -8.77824 4.35084 1.2192
    CHANNELS 3 Zrotation Xrotation Yrotation
    JOINT rThigh
    {
      OFFSET 0 -1.70687 -2.19456
      CHANNELS 3 Zrotation Xrotation Yrotation
      JOINT rShin
      {
        OFFSET 0 -36.8199 0.73152
        CHANNELS 3 Zrotation Xrotation Yrotation
        JOINT rFoot
        {
          OFFSET 0.73152 -45.1104 -5.12064
          CHANNELS 3 Zrotation Xrotation Yrotation
          End Site
          {
            OFFSET -1.1221 -3.69964 12.103
          }
        }
      }
    }
  }
  JOINT lButtock
  {
    OFFSET 8.77824 4.35084 1.2192
    CHANNELS 3 Zrotation Xrotation Yrotation
    JOINT lThigh
    {
      OFFSET 0 -1.70687 -2.19456
      CHANNELS 3 Zrotation Xrotation Yrotation
      JOINT lShin
      {
        OFFSET 0 -36.8199 0.73152
        CHANNELS 3 Zrotation Xrotation Yrotation
        JOINT lFoot
        {
          OFFSET -0.73152 -45.1104 -5.12064
          CHANNELS 3 Zrotation Xrotation Yrotation
          End Site
          {
            OFFSET 1.1221 -3.69964 12.103
          }
        }
      }
    }
  }
}
MOTION
Frames:	7
Frame Time:	0.00833333
-27.8171 -57.7688 9.35899 0.0 0.0 0.0 -0.748015 -0.00481037 -0.0211919 -0.206625 -0.00702264 -0.0358042 6.88693e-15 7.95139e-16 -6.21202e-17 2.05525e-14 9.54166e-15 -1.53748e-16 -0.0 0.0 0.0 -0.0 0.0 0.0 3.47753e-15 2.52363e-18 9.93923e-17 7.43455e-14 -3.91357e-16 5.96354e-16 1.25165e-12 -3.73516e-13 -4.45278e-14 1.42672e-11 3.69267e-13 -8.26944e-14 3.36584e-11 -7.70831e-15 -2.73528e-13 5.81199e-11 -1.27222e-14 -4.69927e-13 3.36594e-11 -1.03368e-14 -2.76708e-13 7.73091 5.47488 0.417314 3.36582e-11 -8.34896e-15 -2.70347e-13 2.90554 0.965183 0.102902 3.36606e-11 -8.05078e-15 -2.71937e-13 10.2786 0.731801 0.0259123 3.36495e-11 -3.18055e-15 -2.60805e-13 2.22167 -0.733487 -0.20892 3.28137e-15 2.71776e-18 -1.49089e-16 7.16091e-14 -2.04997e-16 -1.19271e-15 1.24514e-12 3.71529e-13 -3.18055e-15 1.42653e-11 -3.78163e-13 -1.20861e-13 3.36475e-11 -1.63415e-14 -2.73528e-13 5.81199e-11 -3.18055e-14 -4.67542e-13 3.36431e-11 -1.74931e-14 -2.57625e-13 -7.73091 5.47488 -0.417314 3.36489e-11 -1.69961e-14 -2.73528e-13 -2.90554 0.965183 -0.102902 3.3641e-11 -1.6201e-14 -2.70347e-13 -10.2786 0.731801 -0.0259123 3.36566e-11 -1.19271e-14 -2.79889e-13 -2.22167 -0.733487 0.20892 -2.03217e-16 0.0 -3.88251e-19 -0.10629 -2.11405 -0.0168864 -0.00852729 -1.72221 -0.0716487 -0.459973 3.83677 0.129378 2.03217e-16 0.0 3.88251e-19 -1.04156 -4.9675 0.0902518 0.000851226 3.44627 -0.00736483 0.48017 1.52182 -0.08544
23.9268 10.1456 -63.2178 -91.4503 -3.2264 134.73 0.203161 11.465 -3.22791 1.27908 -2.05093 -0.620785 -0.358869 -0.723193 0.901493 -9.76361 1.61652 0.801691 -0.0 0.0 0.0 -0.0 0.0 0.0 -4.46056e-14 -7.96991e-14 -1.01019e-14 -2.24538 -15.9766 36.5268 -8.3389 -5.24061 11.0681 0.138016 -8.25688 -1.11738 5.28793e-10 1.33522e-09 -5.40651e-10 9.24093e-10 2.31115e-09 -9.24879e-10 5.28797e-10 1.33522e-09 -5.40655e-10 7.73091 5.47488 0.417314 5.28791e-10 1.33522e-09 -5.40647e-10 2.90554 0.965183 0.102902 5.28796e-10 1.33522e-09 -5.40649e-10 10.2786 0.731801 0.0259123 5.28786e-10 1.33522e-09 -5.4064e-10 2.22167 -0.733487 -0.20892 -4.47573e-14 -7.96978e-14 -1.03333e-14 5.99921 -7.85718 -18.8763 3.90549 -1.71631 -6.16175 -0.0426188 4.61207 -0.640812 -9.87643e-10 1.92642e-09 -9.65805e-10 -1.72024e-09 3.29165e-09 -1.65456e-09 -9.87646e-10 1.92643e-09 -9.65791e-10 -7.73091 5.47488 -0.417314 -9.87641e-10 1.92642e-09 -9.65804e-10 -2.90554 0.965183 -0.102902 -9.87649e-10 1.92643e-09 -9.65803e-10 -10.2786 0.731801 -0.0259123 -9.87635e-10 1.92643e-09 -9.65811e-10 -2.22167 -0.733487 0.20892 -2.03217e-16 0.0 -3.88251e-19 4.79376 -23.769 3.11609 -1.95044 17.745 -0.37807 -1.28149 4.39106 -2.91126 2.03217e-16 0.0 3.88251e-19 -2.77998 7.0547 -1.39253 -0.00345478 4.85238 -0.309762 2.10112 -1.26431 0.912623
24.0108 10.1548 -63.1498 -91.5508 -3.2816 134.785 2.7176 23.4669 -7.07423 2.80307 -4.21085 -1.24193 -0.710327 -1.48729 1.85778 -20.1403 3.32919 1.65592 -0.0 0.0 0.0 -0.0 0.0 0.0 -9.95171e-14 -1.68272e-13 -2.20682e-14 10.572 -11.6623 75.9335 -14.9815 -10.1257 23.0515 -0.0807088 -16.9759 -2.3786 1.08672e-09 2.83897e-09 -1.14969e-09 1.8999e-09 4.91403e-09 -1.96674e-09 1.08673e-09 2.83898e-09 -1.14969e-09 7.73091 5.47488 0.417314 1.08672e-09 2.83897e-09 -1.14969e-09 2.90554 0.965183 0.102902 1.08673e-09 2.83897e-09 -1.14969e-09 10.2786 0.731801 0.0259123 1.08672e-09 2.83898e-09 -1.14968e-09 2.22167 -0.733487 -0.20892 -9.9622e-14 -1.68269e-13 -2.22794e-14 7.09443 -13.2795 -39.7078 7.63138 -3.46188 -12.6872 0.0259768 9.42441 -1.32372 -2.11488e-09 4.06517e-09 -2.04185e-09 -3.68327e-09 6.94635e-09 -3.49814e-09 -2.11488e-09 4.06518e-09 -2.04184e-09 -7.73091 5.47488 -0.417314 -2.11488e-09 4.06517e-09 -2.04185e-09 -2.90554 0.965183 -0.102902 -2.11489e-09 4.06518e-09 -2.04185e-09 -10.2786 0.731801 -0.0259123 -2.11488e-09 4.06518e-09 -2.04186e-09 -2.22167 -0.733487 0.20892 -2.03217e-16 0.0 -3.88251e-19 13.602 -46.4051 8.54856 -3.71724 38.3208 -0.848121 -2.08637 4.96084 -6.13108 2.03217e-16 0.0 3.88251e-19 -3.90539 19.7464 -3.12327 0.00816964 6.33623 -0.63117 3.92107 -4.20429 1.97207
24.023 10.1516 -63.1457 -91.5793 -3.2391 134.806 6.60541 33.9261 -11.4101 4.12469 -6.13611 -1.79987 -1.00832 -2.16743 2.7062 -29.4269 4.84576 2.41275 -0.0 0.0 0.0 -0.0 0.0 0.0 -1.40772e-13 -2.39102e-13 -3.05045e-14 16.6733 12.5514 97.7395 -19.1858 -13.371 34.1093 -0.63438 -24.731 -3.65281 1.51906e-09 4.00568e-09 -1.6214e-09 2.65604e-09 6.93346e-09 -2.7737e-09 1.51907e-09 4.00568e-09 -1.62141e-09 7.73091 5.47488 0.417314 1.51906e-09 4.00568e-09 -1.6214e-09 2.90554 0.965183 0.102902 1.51907e-09 4.00568e-09 -1.6214e-09 10.2786 0.731801 0.0259123 1.51906e-09 4.00568e-09 -1.6214e-09 2.22167 -0.733487 -0.20892 -1.40835e-13 -2.39099e-13 -3.07017e-14 4.96651 -13.5862 -58.6142 10.6269 -4.9112 -18.5475 0.189439 13.8292 -1.97344 -3.03022e-09 5.77929e-09 -2.89687e-09 -5.27696e-09 9.87501e-09 -4.96275e-09 -3.03022e-09 5.77932e-09 -2.89686e-09 -7.73091 5.47488 -0.417314 -3.03022e-09 5.7793e-09 -2.89686e-09 -2.90554 0.965183 -0.102902 -3.03023e-09 5.77931e-09 -2.89687e-09 -10.2786 0.731801 -0.0259123 -3.03022e-09 5.7793e-09 -2.89687e-09 -2.22167 -0.733487 0.20892 -2.03217e-16 0.0 -3.88251e-19 30.3555 -65.6918 21.2708 -4.75922 56.6687 -1.70545 -2.74872 5.44897 -9.00734 2.03217e-16 0.0 3.88251e-19 -4.14861 31.0069 -5.04871 0.0328416 7.66383 -0.919467 5.63567 -6.82822 2.92881
24.0218 10.1236 -63.1922 -91.5349 -3.1623 134.848 10.5585 40.9743 -15.3183 5.02946 -7.47724 -2.19112 -1.22122 -2.63977 3.28329 -35.8904 5.87585 2.91854 -0.0 0.0 0.0 -0.0 0.0 0.0 -1.47884e-13 -2.65578e-13 -3.01159e-14 17.0117 35.4546 103.596 -21.3194 -14.7676 41.988 -1.25841 -30.1134 -4.67551 1.63743e-09 4.32977e-09 -1.74982e-09 2.86299e-09 7.49428e-09 -2.99337e-09 1.63744e-09 4.32977e-09 -1.74982e-09 7.73091 5.47488 0.417314 1.63742e-09 4.32976e-09 -1.74981e-09 2.90554 0.965183 0.102902 1.63743e-09 4.32977e-09 -1.74982e-09 10.2786 0.731801 0.0259123 1.63743e-09 4.32977e-09 -1.74981e-09 2.22167 -0.733487 -0.20892 -1.47917e-13 -2.65576e-13 -3.03147e-14 2.79731 -10.7476 -71.1489 12.5534 -5.84439 -22.6862 0.378114 17.2211 -2.49667 -3.41582e-09 6.43186e-09 -3.19931e-09 -5.94729e-09 1.09886e-08 -5.47991e-09 -3.41582e-09 6.43189e-09 -3.1993e-09 -7.73091 5.47488 -0.417314 -3.41582e-09 6.43187e-09 -3.19931e-09 -2.90554 0.965183 -0.102902 -3.41583e-09 6.43189e-09 -3.19931e-09 -10.2786 0.731801 -0.0259123 -3.41582e-09 6.43187e-09 -3.19932e-09 -2.22167 -0.733487 0.20892 -2.03217e-16 0.0 -3.88251e-19 63.5583 -76.4946 51.1396 -4.5328 69.4527 -3.20519 -3.17835 5.77341 -11.0135 2.03217e-16 0.0 3.88251e-19 -3.74159 38.7783 -6.78471 0.0584265 8.60143 -1.121 6.8806 -8.67036 3.6078
24.0041 10.1107 -63.2462 -91.4441 -3.1454 134.864 12.4473 43.6483 -17.1181 5.38786 -8.00247 -2.34345 -1.33513 -2.82464 3.47955 -38.3523 6.22443 3.06876 -0.0 0.0 0.0 -0.0 0.0 0.0 -9.45876e-14 -2.21122e-13 -1.75948e-14 17.2471 45.0497 103.589 -22.0148 -15.0895 45.0921 -1.56393 -32.2047 -5.1148 1.24168e-09 3.28212e-09 -1.32283e-09 2.17097e-09 5.68094e-09 -2.26301e-09 1.24169e-09 3.28213e-09 -1.32284e-09 7.73091 5.47488 0.417314 1.24167e-09 3.28212e-09 -1.32283e-09 2.90554 0.965183 0.102902 1.24168e-09 3.28213e-09 -1.32283e-09 10.2786 0.731801 0.0259123 1.24168e-09 3.28212e-09 -1.32282e-09 2.22167 -0.733487 -0.20892 -9.46026e-14 -2.21125e-13 -1.78203e-14 1.40693 -8.95337 -75.8232 13.3029 -6.21049 -24.381 0.503721 19.2109 -2.81313 -2.94134e-09 5.24013e-09 -2.55349e-09 -5.11731e-09 8.94737e-09 -4.37087e-09 -2.94134e-09 5.24016e-09 -2.55348e-09 -7.73091 5.47488 -0.417314 -2.94134e-09 5.24014e-09 -2.55349e-09 -2.90554 0.965183 -0.102902 -2.94135e-09 5.24015e-09 -2.55349e-09 -10.2786 0.731801 -0.0259123 -2.94134e-09 5.24014e-09 -2.5535e-09 -2.22167 -0.733487 0.20892 -2.03217e-16 0.0 -3.88251e-19 89.1598 -78.3926 75.3257 -3.75815 74.4636 -4.46101 -3.33671 5.88972 -11.7934 2.03217e-16 0.0 3.88251e-19 -3.42972 41.7356 -7.57227 0.0712068 8.9951 -1.19774 7.37407 -9.43013 3.88439
23.9842 10.1053 -63.2688 -91.3867 -3.1474 134.844 12.1834 43.3425 -16.8718 5.36546 -7.9454 -2.32335 -1.38317 -2.80448 3.40346 -37.9475 6.087 2.96362 -0.0 0.0 0.0 -0.0 0.0 0.0 1.25844e-15 -1.26422e-13 3.60297e-15 17.2449 43.9883 103.635 -21.9426 -15.0629 44.7522 -1.52618 -31.955 -5.06119 4.8225e-10 1.26382e-09 -5.02687e-10 8.43033e-10 2.18759e-09 -8.60149e-10 4.82255e-10 1.26382e-09 -5.02694e-10 7.73091 5.47488 0.417314 4.82245e-10 1.26382e-09 -5.02683e-10 2.90554 0.965183 0.102902 4.82254e-10 1.26382e-09 -5.02684e-10 10.2786 0.731801 0.0259123 4.82249e-10 1.26382e-09 -5.02677e-10 2.22167 -0.733487 -0.20892 1.25139e-15 -1.26433e-13 3.33275e-15 0.326183 -9.18243 -75.4582 13.2841 -6.21733 -24.3207 0.555514 20.2002 -2.97024 -1.85817e-09 2.7481e-09 -1.23865e-09 -3.22556e-09 4.6819e-09 -2.11452e-09 -1.85817e-09 2.74811e-09 -1.23864e-09 -7.73091 5.47488 -0.417314 -1.85816e-09 2.74809e-09 -1.23865e-09 -2.90554 0.965183 -0.102902 -1.85817e-09 2.74811e-09 -1.23865e-09 -10.2786 0.731801 -0.0259123 -1.85816e-09 2.7481e-09 -1.23866e-09 -2.22167 -0.733487 0.20892 -2.03217e-16 0.0 -3.88251e-19 86.0893 -78.2933 72.4364 -3.88957 73.9385 -4.26405 -3.31327 5.86328 -11.696 2.03217e-16 0.0 3.88251e-19 -3.50887 41.2849 -7.42692 0.0714522 9.00027 -1.18476 7.30838 -9.41839 3.86837
